PathFileType	4	(X/Y/Z)	C:/Users/beibeiliu/ov580/test_trc/User3\sequence.3_training_dense_right.trc
DataRate	CameraRate	NumFrames	NumMarkers	Units	OrigDataRate	OrigDataStartFrame	OrigNumFrames
120	120	16	19	mm	120	53	78
Frame#	Time	ThumbCMC			ThumbMCP			ThumbIP			ThumbTip			IndexMCP			IndexPIP			IndexTip			MiddleMCP			MiddlePIP			MiddleTip			RingMCP			RingPIP			RingTip			PinkyMCP			PinkyPIP			PinkyTip			BackHand1			BackHand2			BackHand3	
		X0	Y0	Z0	X1	Y1	Z1	X2	Y2	Z2	X3	Y3	Z3	X4	Y4	Z4	X5	Y5	Z5	X6	Y6	Z6	X7	Y7	Z7	X8	Y8	Z8	X9	Y9	Z9	X10	Y10	Z10	X11	Y11	Z11	X12	Y12	Z12	X13	Y13	Z13	X14	Y14	Z14	X15	Y15	Z15	X16	Y16	Z16	X17	Y17	Z17	X18	Y18	Z18	
52	0.433333	99.3246	5.06373	-61.6025	79.8262	-18.5598	-84.8828	82.9502	-41.0739	-105.282	99.343	-59.7457	-112.282	103.314	-15.2663	-130.904	81.9149	-34.9941	-118.444	96.4341	-23.1809	-88.5832	116.269	-31.4911	-129.026	94.5084	-47.0306	-111.911	110.75	-28.8615	-79.4045	126.204	-43.2164	-116.384	109.61	-55.0683	-94.6283	119.665	-33.0036	-69.126	138.825	-50.2729	-105.541	120.832	-56.3342	-85.0354	129.578	-36.1739	-64.0118	162.734	-6.10819	-88.5448	164.298	0.614219	-54.004	138.302	16.4341	-71.8616	
53	0.441667	95.2946	15.3358	-55.8704	67.3032	0.497385	-77.9733	59.2944	-21.4763	-95.8641	73.2127	-49.4172	-103.732	93.3518	-6.63872	-123.562	66.7487	-21.8302	-115.184	77.8119	-14.0008	-84.5673	96.9962	-25.2899	-120.368	71.4135	-36.46	-98.7019	92.0992	-21.6046	-70.8769	102.07	-45.0397	-106.797	82.9762	-47.8512	-85.1029	97.4319	-23.8184	-62.4757	112.576	-55.2236	-95.0095	93.885	-54.6184	-74.4474	105.164	-33.5734	-56.0433	150.201	-18.0288	-79.3065	154.78	-11.2575	-49.1412	135.079	15.5736	-68.0585	
54	0.45	103.134	33.0756	-49.1218	73.8464	31.9194	-69.1311	55.0676	14.5846	-90.7726	52.9045	-10.1205	-93.5322	88.2564	12.2117	-119.156	58.6579	13.8719	-106.702	70.7163	16.8904	-78.3219	83.8489	-5.25316	-112.961	58.1452	-2.26231	-91.1013	80.8846	6.08767	-63.8596	82.3605	-20.5207	-98.7364	63.7048	-19.4427	-76.7517	83.8456	-5.81788	-53.8755	83.9742	-34.8184	-86.4457	71.3525	-24.8543	-64.7023	95.5151	-16.0286	-44.9102	135.029	-16.5688	-74.0923	144.277	-15.1085	-40.6418	137.911	17.7296	-64.088	
55	0.458333	116.097	52.2009	-41.1032	90.5532	61.676	-64.556	67.8409	53.9644	-81.1486	58.572	26.2213	-83.9137	95.7873	40.1223	-110.551	66.7512	48.943	-103.135	73.2287	52.5847	-72.8686	83.8538	23.848	-104.759	59.4006	35.9209	-86.8946	83.7564	31.802	-54.2712	77.5283	6.29771	-90.5147	60.0609	23.3002	-68.4478	83.4434	19.2639	-44.6633	74.8372	-4.21185	-78.3071	62.1377	7.60981	-54.4094	86.6026	10.0312	-37.8647	126.916	-6.92186	-65.9137	135.224	-6.43485	-31.8181	141.409	28.1551	-54.6319	
56	0.466667	135.507	62.4303	-32.673	122.95	77.0743	-61.296	102.505	67.7719	-81.7369	83.8106	48.5383	-80.533	106.542	57.6613	-102.087	84.6017	78.258	-100.018	85.4523	84.6292	-65.4162	93.7678	46.7328	-99.1473	70.5586	64.4617	-85.9578	87.7737	59.9464	-50.014	83.807	35.2721	-84.8763	65.2217	49.6637	-62.9247	88.2642	41.6917	-40.6898	76.0127	25.2917	-72.4258	65.1049	37.99	-49.1378	88.5153	26.5369	-32.4348	122.62	4.73549	-55.7922	132.07	2.19469	-25.8763	145.45	30.9933	-46.1239	
57	0.475	157.884	62.3624	-28.1614	151.904	77.2359	-61.2508	128.774	75.3341	-84.9857	108.754	62.9375	-79.6885	135.867	62.4215	-100.339	114.78	88.4959	-99.7967	116.053	93.4396	-65.8194	114.664	54.5021	-97.6062	98.8662	81.9256	-84.3617	109.892	70.3218	-50.2169	99.9347	45.7943	-84.0939	88.3125	68.549	-66.6204	110.539	57.6399	-41.9184	86.9812	41.5494	-72.655	86.7809	59.4186	-53.0221	105.666	41.0363	-31.9197	132.397	10.3837	-51.9782	134.537	5.19131	-23.5049	157.702	27.1978	-40.7504	
58	0.483333	180.406	51.8156	-29.1701	175.074	76.4374	-54.2065	157.384	84.6466	-79.0842	130.264	71.0803	-82.6607	167.241	45.8116	-98.7823	157.393	78.2579	-100.983	158.417	79.0231	-68.7867	147	43.4671	-97.2673	133.332	73.548	-85.2039	147.182	59.2313	-49.8513	132.42	41.6477	-87.7018	119.754	64.9522	-70.773	134.039	54.8075	-44.5932	113.92	37.8615	-75.9243	113.261	59.1231	-57.7557	124.605	43.2081	-33.052	144.864	1.84414	-46.5264	146.811	-1.4347	-13.9938	176.721	13.6875	-33.3218	
59	0.491667	200.117	39.1978	-23.4671	198.788	63.9607	-52.5238	180.603	64.9358	-78.8876	159.027	58.5854	-87.3392	201.694	29.3918	-94.1099	187.828	57.6084	-99.1929	183.053	58.9305	-65.5308	177.006	27.6276	-97.0987	165.535	56.5309	-88.5432	170.965	46.2047	-52.3171	158.475	23.1116	-88.7257	147.661	49.7901	-76.4498	156.423	41.105	-45.8521	141.768	18.5233	-77.9399	137.897	43.7888	-64.8676	148.871	34.5579	-39.5955	170.717	-11.9588	-46.2983	167.143	-13.3573	-9.92874	198.302	-0.720442	-25.0729	
60	0.5	215.88	40.1743	-15.5411	208.934	53.6489	-47.8298	198.93	57.041	-77.536	179.082	42.256	-92.7659	226.191	23.0083	-89.202	208.279	50.7501	-92.1743	203.033	50.161	-58.9694	209.441	13.9272	-90.1082	191.135	42.4058	-89.9902	189.832	31.2354	-48.1157	186.472	8.6113	-87.4539	170.972	30.4114	-78.295	177.135	27.2449	-44.9603	170.192	-1.18158	-76.2604	165.854	25.8326	-66.312	167.427	20.1867	-38.6941	201.548	-23.364	-37.4687	194.535	-22.0354	-4.90774	224.764	-2.23877	-19.1547	
61	0.508333	217.899	46.8591	-16.2736	206.47	61.0716	-46.7348	200.273	55.752	-79.0624	193.218	32.1828	-89.8329	243.541	36.693	-79.3113	212.655	48.1466	-90.9219	206.151	50.2683	-60.1888	228.786	16.3729	-84.4722	200.083	36.5101	-87.5669	200.135	31.8153	-48.4216	215.506	6.66034	-81.4261	189.109	19.027	-80.2303	188.571	19.5126	-45.1857	202.995	-6.64255	-74.9781	182.32	7.20089	-68.5438	189.315	10.5328	-35.053	233.7	-14.675	-31.8678	224.048	-16.0387	-0.173074	243.692	17.8474	-10.7631	
62	0.516667	202.491	54.7581	-16.2255	189.774	57.909	-49.2017	189.884	50.3438	-82.9982	194.708	27.7549	-94.4543	234.131	54.3292	-78.873	205.551	50.2942	-93.0246	195.658	47.9758	-58.9417	230.495	33.6997	-88.3833	198.738	33.0148	-88.89	199.859	26.0066	-47.8598	227.268	13.1311	-79.126	194.367	14.4756	-76.6079	197.062	14.8936	-41.055	223.951	-5.0192	-73.0074	196.32	1.62235	-66.657	200.759	6.57368	-36.4758	249.365	10.0786	-26.1937	240.014	1.47115	4.23903	239.243	39.8529	-11.3261	
63	0.525	181.512	51.7766	-22.0392	170.598	49.5268	-54.7064	171.88	43.5467	-85.8557	189.687	22.4513	-99.8764	212.122	63.8515	-83.0559	182.5	50.441	-94.5858	184.119	39.6679	-62.1507	219.064	44.1558	-88.2383	192.278	29.2033	-93.5182	193.956	21.9845	-50.1578	224.117	24.1045	-81.0096	197.815	8.41267	-79.6673	196.268	10.2675	-46.9297	228.31	7.44851	-75.0918	202.988	1.31367	-71.5892	202.052	1.97155	-39.8054	246.166	32.9803	-30.8892	236.271	20.5529	1.9012	219.536	55.5248	-14.103	
64	0.533333	162.616	41.4771	-21.0772	150.895	39.8838	-60.4089	152.299	32.7299	-87.8555	177.136	20.3752	-102.493	183.774	69.5738	-86.2402	163.272	43.1933	-98.7335	167.143	33.6389	-67.7492	196.461	51.9024	-92.8016	180.079	24.8166	-97.5209	178.156	20.2675	-57.8985	209.387	32.3229	-86.3397	189.613	5.52848	-81.8781	186.958	9.18891	-52.3116	218.131	18.8842	-80.1262	197.433	0.677908	-74.8139	198.727	-0.0687128	-44.6283	229.727	45.4578	-36.5239	225.507	32.7032	-3.78495	198.786	57.7496	-16.8117	
65	0.541667	147.883	38.5251	-25.9494	138.652	32.4172	-59.3284	137.777	28.1256	-89.3074	158.11	18.3426	-105.26	164.87	67.7624	-90.834	152.946	39.7149	-107.027	151.54	26.4368	-79.1933	182.564	50.7755	-101.86	167.102	24.7846	-105.82	164.358	15.8133	-68.0708	192.124	36.1761	-93.7981	177.496	9.79922	-92.102	174.735	9.3789	-58.4268	205.596	23.9785	-87.3886	189.581	1.14237	-82.1526	187.269	1.68436	-55.4853	213.316	51.1074	-39.2526	210.34	38.6675	-8.45697	184.591	61.7052	-23.4751	
66	0.55	138.029	38.5286	-28.5941	126.847	30.1859	-58.7026	122.531	26.9371	-91.8657	140.045	17.7992	-108.747	152.642	65.1713	-99.1802	137.339	44.7708	-117.515	137.294	20.761	-89.4567	170.967	54.6055	-104.723	156.617	26.6834	-117.522	155.868	9.19712	-79.8909	184.496	37.6397	-103.788	170.935	9.11619	-104.319	164.984	3.30293	-74.74	199.9	27.842	-93.8047	185.121	6.89611	-99.4596	178.127	-4.34747	-69.3181	204.699	54.3156	-48.7243	203.58	42.7526	-17.4159	172.408	60.7411	-27.3362	
67	0.558333	128.849	37.6086	-31.4423	116.165	26.7753	-60.09	110.637	20.303	-89.9718	114.762	9.73993	-110.529	144.326	62.2023	-105.409	129.886	44.5489	-129.114	127.642	14.0642	-116.361	159.4	53.9437	-115.327	151.804	30.471	-133.046	145.868	0.518037	-108.869	181.973	41.0934	-106.792	169.753	17.1476	-124.368	159.359	-4.21108	-100.771	198.616	27.4904	-98.0028	181.256	7.77002	-113.461	170.998	-11.2755	-95.7864	193.147	52.6674	-52.2929	198.052	45.7014	-21.2958	160.895	62.469	-37.3075	
